<?xml version="1.0" encoding="iso-8859-1"?>
<!-- Generator: Adobe Illustrator 16.0.0, SVG Export Plug-In . SVG Version: 6.00 Build 0)  -->
<!DOCTYPE svg PUBLIC "-//W3C//DTD SVG 1.1//EN" "http://www.w3.org/Graphics/SVG/1.1/DTD/svg11.dtd">
<svg version="1.1" id="Layer_1" xmlns="http://www.w3.org/2000/svg" xmlns:xlink="http://www.w3.org/1999/xlink" x="0px" y="0px"
	 width="200px" height="200px" viewBox="0 0 200 200" style="enable-background:new 0 0 200 200;" xml:space="preserve">
<path style="fill:none;stroke:#273D6A;stroke-width:5;stroke-linecap:round;stroke-linejoin:round;stroke-miterlimit:10;" d="
	M136.333,19.521h21.333c1.657,0,3,1.343,3,3v159.333c0,1.658-1.343,3-3,3H42.333c-1.657,0-3-1.342-3-3V22.521c0-1.657,1.343-3,3-3
	h21.335"/>
<path style="fill:none;stroke:#273D6A;stroke-width:5;stroke-linecap:round;stroke-linejoin:round;stroke-miterlimit:10;" d="
	M136.334,27.835c0,1.657-1.343,3-3,3H66.667c-1.657,0-3-1.343-3-3V18.47c0-1.657,1.343-3,3-3h66.667c1.657,0,3,1.343,3,3V27.835z"/>
<path style="fill:#38B5FF;" d="M79.378,96.793h34.928c0,0-1.608-19.18-14.378-22.234c4.512-1.493,7.771-5.737,7.771-10.751
	c0-6.257-5.073-11.328-11.33-11.328s-11.328,5.071-11.328,11.328c0,5.016,3.262,9.263,7.776,10.753
	C80.188,77.624,79.378,96.793,79.378,96.793z"/>
<path style="fill:none;stroke:#273D6A;stroke-width:5;stroke-linecap:round;stroke-linejoin:round;stroke-miterlimit:10;" d="
	M127.667,13.464c0,1.164-1.343,2.107-3,2.107H75.334c-1.657,0-3-0.944-3-2.107V7.442c0-1.164,1.343-2.107,3-2.107h49.333
	c1.657,0,3,0.944,3,2.107V13.464z"/>
<g>
	<circle style="fill:none;stroke:#273D6A;stroke-width:5;stroke-miterlimit:10;" cx="99.977" cy="59.597" r="11.329"/>
	<path style="fill:none;stroke:#273D6A;stroke-width:5;stroke-miterlimit:10;" d="M82.984,93.582h34.928
		c0,0-1.887-22.655-17.937-22.655C83.929,70.927,82.984,93.582,82.984,93.582z"/>
</g>
<path style="fill:none;stroke:#273D6A;stroke-width:5;stroke-miterlimit:10;" d="M136.334,99.188c0,1.657-1.343,3-3,3H66.667
	c-1.657,0-3-1.343-3-3V42.663c0-1.657,1.343-3,3-3h66.667c1.657,0,3,1.343,3,3V99.188z"/>
<path style="fill:#38B5FF;" d="M144.872,137.541c0,1.535-2.268,2.677-3.897,2.677H52.668c-1.628,0-3.856-1.142-3.856-2.677v-7.814
	c0-1.536,2.229-2.509,3.856-2.509h88.307c1.63,0,3.897,0.973,3.897,2.509V137.541z"/>
<path style="fill:#38B5FF;" d="M144.872,162.001c0,1.535-2.268,2.677-3.897,2.677H52.668c-1.628,0-3.856-1.142-3.856-2.677v-7.814
	c0-1.536,2.229-2.509,3.856-2.509h88.307c1.63,0,3.897,0.973,3.897,2.509V162.001z"/>
<path style="fill:none;stroke:#273D6A;stroke-width:5;stroke-miterlimit:10;" d="M148.935,132.812c0,1.535-2.268,2.677-3.897,2.677
	H56.73c-1.628,0-3.856-1.142-3.856-2.677v-7.814c0-1.536,2.229-2.509,3.856-2.509h88.307c1.63,0,3.897,0.973,3.897,2.509V132.812z"
	/>
<path style="fill:none;stroke:#273D6A;stroke-width:5;stroke-miterlimit:10;" d="M148.935,157.271c0,1.535-2.268,2.677-3.897,2.677
	H56.73c-1.628,0-3.856-1.142-3.856-2.677v-7.814c0-1.536,2.229-2.509,3.856-2.509h88.307c1.63,0,3.897,0.973,3.897,2.509V157.271z"
	/>
</svg>
