<?xml version="1.0" encoding="iso-8859-1"?>
<!-- Generator: Adobe Illustrator 16.0.0, SVG Export Plug-In . SVG Version: 6.00 Build 0)  -->
<!DOCTYPE svg PUBLIC "-//W3C//DTD SVG 1.1//EN" "http://www.w3.org/Graphics/SVG/1.1/DTD/svg11.dtd">
<svg version="1.1" id="Layer_1" xmlns="http://www.w3.org/2000/svg" xmlns:xlink="http://www.w3.org/1999/xlink" x="0px" y="0px"
	 width="200px" height="200px" viewBox="0 0 200 200" style="enable-background:new 0 0 200 200;" xml:space="preserve">
<circle style="fill:none;stroke:#273D6A;stroke-width:5;stroke-miterlimit:10;" cx="37.888" cy="45.367" r="15.909"/>
<circle style="fill:none;stroke:#273D6A;stroke-width:5;stroke-miterlimit:10;" cx="37.888" cy="98.629" r="15.909"/>
<circle style="fill:none;stroke:#273D6A;stroke-width:5;stroke-miterlimit:10;" cx="37.888" cy="152.783" r="15.909"/>
<path style="fill:#38B5FF;" d="M175.165,43.909c0,1.536-2.268,2.254-3.897,2.254H69.961c-1.628,0-3.857-0.719-3.857-2.254v-7.814
	c0-1.536,2.229-2.931,3.857-2.931h101.306c1.63,0,3.897,1.396,3.897,2.931V43.909z"/>
<path style="fill:#38B5FF;" d="M130.549,65.073c0,1.536-1.847,2.208-3.476,2.208H69.961c-1.628,0-3.857-0.672-3.857-2.208v-7.814
	c0-1.536,2.229-2.978,3.857-2.978h57.112c1.629,0,3.476,1.441,3.476,2.978V65.073z"/>
<path style="fill:#38B5FF;" d="M175.165,97.046c0,1.536-2.268,2.88-3.897,2.88H69.961c-1.628,0-3.857-1.344-3.857-2.88v-7.814
	c0-1.536,2.229-3.306,3.857-3.306h101.306c1.63,0,3.897,1.77,3.897,3.306V97.046z"/>
<path style="fill:#38B5FF;" d="M130.549,118.209c0,1.535-1.847,2.834-3.476,2.834H69.961c-1.628,0-3.857-1.299-3.857-2.834v-7.814
	c0-1.535,2.229-3.352,3.857-3.352h57.112c1.629,0,3.476,1.816,3.476,3.352V118.209z"/>
<path style="fill:#38B5FF;" d="M175.165,150.903c0,1.535-2.268,2.677-3.897,2.677H69.961c-1.628,0-3.857-1.142-3.857-2.677v-7.814
	c0-1.536,2.229-2.509,3.857-2.509h101.306c1.63,0,3.897,0.973,3.897,2.509V150.903z"/>
<path style="fill:#38B5FF;" d="M130.549,172.067c0,1.535-1.847,2.631-3.476,2.631H69.961c-1.628,0-3.857-1.096-3.857-2.631v-7.814
	c0-1.535,2.229-2.555,3.857-2.555h57.112c1.629,0,3.476,1.02,3.476,2.555V172.067z"/>
<path style="fill:none;stroke:#273D6A;stroke-width:5;stroke-miterlimit:10;" d="M178.021,39.053c0,1.536-2.268,2.254-3.897,2.254
	H72.817c-1.628,0-3.857-0.719-3.857-2.254v-7.814c0-1.536,2.229-2.931,3.857-2.931h101.306c1.63,0,3.897,1.396,3.897,2.931V39.053z"
	/>
<path style="fill:none;stroke:#273D6A;stroke-width:5;stroke-miterlimit:10;" d="M133.404,60.218c0,1.536-1.847,2.208-3.476,2.208
	H72.817c-1.628,0-3.857-0.672-3.857-2.208v-7.814c0-1.536,2.229-2.978,3.857-2.978h57.112c1.629,0,3.476,1.441,3.476,2.978V60.218z"
	/>
<path style="fill:none;stroke:#273D6A;stroke-width:5;stroke-miterlimit:10;" d="M178.021,92.19c0,1.536-2.268,2.88-3.897,2.88
	H72.817c-1.628,0-3.857-1.344-3.857-2.88v-7.814c0-1.536,2.229-3.306,3.857-3.306h101.306c1.63,0,3.897,1.77,3.897,3.306V92.19z"/>
<path style="fill:none;stroke:#273D6A;stroke-width:5;stroke-miterlimit:10;" d="M133.404,113.354c0,1.535-1.847,2.834-3.476,2.834
	H72.817c-1.628,0-3.857-1.299-3.857-2.834v-7.814c0-1.535,2.229-3.352,3.857-3.352h57.112c1.629,0,3.476,1.816,3.476,3.352V113.354z
	"/>
<path style="fill:none;stroke:#273D6A;stroke-width:5;stroke-miterlimit:10;" d="M178.021,146.048c0,1.535-2.268,2.677-3.897,2.677
	H72.817c-1.628,0-3.857-1.142-3.857-2.677v-7.814c0-1.536,2.229-2.509,3.857-2.509h101.306c1.63,0,3.897,0.973,3.897,2.509V146.048z
	"/>
<path style="fill:none;stroke:#273D6A;stroke-width:5;stroke-miterlimit:10;" d="M133.404,167.212c0,1.535-1.847,2.631-3.476,2.631
	H72.817c-1.628,0-3.857-1.096-3.857-2.631v-7.814c0-1.535,2.229-2.555,3.857-2.555h57.112c1.629,0,3.476,1.02,3.476,2.555V167.212z"
	/>
<polygon style="fill:#273D6A;" points="64.769,19.815 37.459,54.061 23.044,39.645 37.445,44.883 "/>
<polygon style="fill:#273D6A;" points="64.769,73.077 37.459,107.322 23.044,92.906 37.445,98.144 "/>
</svg>
