<?xml version="1.0" encoding="iso-8859-1"?>
<!-- Generator: Adobe Illustrator 16.0.0, SVG Export Plug-In . SVG Version: 6.00 Build 0)  -->
<!DOCTYPE svg PUBLIC "-//W3C//DTD SVG 1.1//EN" "http://www.w3.org/Graphics/SVG/1.1/DTD/svg11.dtd">
<svg version="1.1" id="Layer_1" xmlns="http://www.w3.org/2000/svg" xmlns:xlink="http://www.w3.org/1999/xlink" x="0px" y="0px"
	 width="200px" height="200px" viewBox="0 0 200 200" style="enable-background:new 0 0 200 200;" xml:space="preserve">
<g>
	<path style="fill:none;stroke:#273D6A;stroke-width:5;stroke-miterlimit:10;" d="M113.425,146.947
		c0-7.442-6.031-13.476-13.475-13.476c-7.444,0-13.479,6.033-13.479,13.476c0,7.445,6.035,13.478,13.479,13.478
		C107.394,160.425,113.425,154.393,113.425,146.947z"/>
	<path style="fill:none;stroke:#273D6A;stroke-width:5;stroke-miterlimit:10;" d="M79.732,187.382h41.555
		c0,0-2.244-26.957-21.337-26.957C80.856,160.425,79.732,187.382,79.732,187.382z"/>
</g>
<g>
	<path style="fill:none;stroke:#273D6A;stroke-width:5;stroke-miterlimit:10;" d="M182.172,42.117
		c0-7.442-6.035-13.477-13.479-13.477s-13.477,6.034-13.477,13.477c0,7.446,6.033,13.479,13.477,13.479
		S182.172,49.562,182.172,42.117z"/>
	<path style="fill:none;stroke:#273D6A;stroke-width:5;stroke-miterlimit:10;" d="M148.479,82.548h41.553
		c0,0-2.245-26.952-21.339-26.952C149.603,55.596,148.479,82.548,148.479,82.548z"/>
</g>
<g>
	<path style="fill:none;stroke:#273D6A;stroke-width:5;stroke-miterlimit:10;" d="M42.737,42.117
		c0-7.442-6.031-13.477-13.478-13.477c-7.443,0-13.477,6.034-13.477,13.477c0,7.446,6.033,13.479,13.477,13.479
		C36.706,55.596,42.737,49.562,42.737,42.117z"/>
	<path style="fill:none;stroke:#273D6A;stroke-width:5;stroke-miterlimit:10;" d="M9.045,82.548h41.553
		c0,0-2.243-26.952-21.338-26.952C10.167,55.596,9.045,82.548,9.045,82.548z"/>
</g>
<g>
	<path style="fill:#38B5FF;" d="M113.523,74.238l-2.259-5.866l-8.278,0.454l-3.479-3.64l0.661-8.265l-5.939-2.595l-5.516,6.226
		l-5.005-0.312l-5.315-6.443l-6.037,2.326l0.329,8.463l-3.514,3.302l-9.268-0.698l-2.616,6.402l7.22,5.258L64.355,83.6l-6.438,5.417
		l2.358,6.123l8.341-0.479l3.307,3.609l-0.603,8.239l5.955,2.493l5.639-6.174l4.834,0.372l5.251,6.269l6.123-2.356l-0.493-8.395
		l3.604-3.337l8.125,0.779l2.637-5.895l-5.979-5.509l0.025-4.893L113.523,74.238z M89.202,91.43
		c-5.103,1.966-10.832-0.578-12.799-5.68c-1.964-5.102,0.58-10.831,5.683-12.797c5.102-1.964,10.83,0.578,12.797,5.681
		C96.847,83.735,94.305,89.465,89.202,91.43z"/>
</g>
<g>
	<path style="fill:#38B5FF;" d="M144.786,108.681l-1.392-4.376l-6.06-0.03l-2.375-2.807l0.842-5.997l-4.216-2.152l-4.293,4.3
		l-3.637-0.447l-3.592-4.931l-4.506,1.432l-0.129,6.183l-2.707,2.255l-6.727-0.911l-2.186,4.551l5.031,4.148l-0.315,3.457
		l-4.931,3.667l1.451,4.568l6.104,0.017l2.253,2.776l-0.801,5.981l4.232,2.075l4.381-4.256l3.507,0.486l3.559,4.8l4.566-1.451
		l0.008-6.142l2.772-2.275l5.891,0.922l2.18-4.185l-4.12-4.277l0.233-3.565L144.786,108.681z M126.298,120.153
		c-3.806,1.209-7.87-0.896-9.081-4.702c-1.21-3.806,0.895-7.871,4.7-9.081c3.809-1.21,7.871,0.893,9.083,4.7
		C132.209,114.878,130.104,118.942,126.298,120.153z"/>
</g>
<g>
	<path style="fill:none;stroke:#273D6A;stroke-width:5;stroke-linecap:round;stroke-linejoin:round;stroke-miterlimit:10;" d="
		M115.6,69.742l-2.261-5.867l-8.279,0.455l-3.478-3.64l0.66-8.265l-5.938-2.595l-5.517,6.226l-5.004-0.312l-5.315-6.444
		l-6.039,2.327l0.329,8.462l-3.513,3.303l-9.266-0.698l-2.616,6.402l7.218,5.257l-0.15,4.75l-6.44,5.417l2.358,6.123l8.344-0.478
		l3.307,3.609l-0.603,8.24l5.953,2.492l5.638-6.175l4.837,0.373l5.25,6.271l6.122-2.359l-0.494-8.393l3.605-3.338l8.126,0.779
		l2.637-5.895l-5.98-5.51l0.025-4.893L115.6,69.742z M91.275,86.933c-5.101,1.965-10.832-0.578-12.797-5.68
		c-1.964-5.102,0.578-10.831,5.682-12.796c5.101-1.965,10.831,0.578,12.796,5.68S96.378,84.968,91.275,86.933z"/>
</g>
<g>
	<path style="fill:none;stroke:#273D6A;stroke-width:5;stroke-linecap:round;stroke-linejoin:round;stroke-miterlimit:10;" d="
		M147.128,104.196l-1.392-4.377l-6.058-0.029l-2.375-2.807l0.842-5.997l-4.216-2.151l-4.295,4.3l-3.634-0.448l-3.593-4.932
		l-4.506,1.433l-0.13,6.183l-2.707,2.255l-6.726-0.912l-2.186,4.551l5.031,4.15l-0.315,3.456l-4.932,3.667l1.451,4.568l6.103,0.017
		l2.255,2.775l-0.8,5.981l4.232,2.076l4.379-4.256l3.508,0.485l3.558,4.801l4.566-1.451l0.01-6.143l2.772-2.275l5.89,0.922
		l2.179-4.184l-4.119-4.277l0.231-3.567L147.128,104.196z M128.643,115.669c-3.806,1.209-7.872-0.896-9.084-4.7
		c-1.208-3.808,0.896-7.873,4.701-9.083c3.809-1.209,7.873,0.894,9.082,4.699C134.554,110.394,132.448,114.46,128.643,115.669z"/>
</g>
<path style="fill:none;stroke:#273D6A;stroke-width:5;stroke-linecap:round;stroke-linejoin:round;stroke-miterlimit:10;" d="
	M71.42,165.169c-26.823-11.345-45.646-37.904-45.646-68.86"/>
<path style="fill:none;stroke:#273D6A;stroke-width:5;stroke-linecap:round;stroke-linejoin:round;stroke-miterlimit:10;" d="
	M175.245,96.309c0,30.858-18.703,57.349-45.392,68.754"/>
<path style="fill:none;stroke:#273D6A;stroke-width:5;stroke-linecap:round;stroke-linejoin:round;stroke-miterlimit:10;" d="
	M61.214,32.727c11.417-7.072,24.881-11.154,39.297-11.154c14.42,0,27.886,4.084,39.305,11.158"/>
</svg>
