<?xml version="1.0" encoding="iso-8859-1"?>
<!-- Generator: Adobe Illustrator 16.0.0, SVG Export Plug-In . SVG Version: 6.00 Build 0)  -->
<!DOCTYPE svg PUBLIC "-//W3C//DTD SVG 1.1//EN" "http://www.w3.org/Graphics/SVG/1.1/DTD/svg11.dtd">
<svg version="1.1" id="Layer_1" xmlns="http://www.w3.org/2000/svg" xmlns:xlink="http://www.w3.org/1999/xlink" x="0px" y="0px"
	 width="200px" height="200px" viewBox="0 0 200 200" style="enable-background:new 0 0 200 200;" xml:space="preserve">
<path style="fill:none;stroke:#273D6A;stroke-width:5;stroke-linecap:round;stroke-linejoin:round;stroke-miterlimit:10;" d="
	M137.103,33.604H64.106c-2.452,0-4.439,3.009-4.439,6.719v21.198l13.316,0.119V51.378c0-2.503,1.342-4.534,2.995-4.534h49.251
	c1.655,0,2.996,2.03,2.996,4.534V61.64l13.316-0.119V40.323C141.542,36.613,139.555,33.604,137.103,33.604z"/>
<path style="fill:#38B5FF;" d="M179.322,162.911c0,1.643-1.329,2.971-2.971,2.971H13.97c-1.641,0-2.97-1.328-2.97-2.971V71.159
	c0-1.64,1.329-2.97,2.97-2.97h162.382c1.642,0,2.971,1.33,2.971,2.97V162.911z"/>
<path style="fill:none;stroke:#273D6A;stroke-width:5;stroke-linecap:round;stroke-linejoin:round;stroke-miterlimit:10;" d="
	M185.334,157.307c0,1.658-1.343,3-3,3h-164c-1.657,0-3-1.342-3-3V64.64c0-1.657,1.343-3,3-3h164c1.657,0,3,1.343,3,3V157.307z"/>
<rect x="33" y="61.64" style="fill:none;stroke:#273D6A;stroke-width:5;stroke-linecap:round;stroke-linejoin:round;stroke-miterlimit:10;" width="18.667" height="98.667"/>
<rect x="150.666" y="61.64" style="fill:none;stroke:#273D6A;stroke-width:5;stroke-linecap:round;stroke-linejoin:round;stroke-miterlimit:10;" width="18.667" height="98.667"/>
</svg>
